:version 1.10
:name ASF
:units
  mass 1
  length 1
  angle deg
:documentation
  ASF file generated by Kaydara
:root
  axis xyz
  order  tx ty tz rx ry rz
  position 0 0 0
  orientation 0 0 0
:bonedata
  begin
    id 1
    name RightUpLegDummy
    direction -0.718183 -0.695806 0.00816078
    length 4.904
    axis 0 0 0 xyz
  end
  begin
    id 2
    name RightUpLeg
    direction -0.0736652 -0.994202 0.0783343
    length 17.4976
    axis -2.72909 -3.00389 -4.00133 xyz
    dof rx ry rz
  end
  begin
    id 3
    name RightLeg
    direction -0.0389037 -0.994596 -0.0962598
    length 16.5821
    axis 3.95836 -18.5909 -4.46993 xyz
    dof rx ry rz
  end
  begin
    id 4
    name RightFoot
    direction -0.311643 -0.412678 0.855906
    length 3.77069
    axis -1.99483 -18.8351 -3.27644 xyz
    dof rx ry rz
  end
  begin
    id 5
    name RightToes
    direction -0.317852 0.0389852 0.947339
    length 3.85082
    axis -2.00228 -18.1713 -3.25211 xyz
    dof rx ry rz
  end
  begin
    id 6
    name SpineDummy
    direction 8.3039e-015 1 4.44677e-016
    length 4.6813
    axis 0 0 0 xyz
  end
  begin
    id 7
    name Spine
    direction -0.000262373 0.999988 0.00493267
    length 10.1015
    axis -0.00246081 0.00062579 0.0150362 xyz
    dof rx ry rz
  end
  begin
    id 8
    name Spine1
    direction 0 0 0
    length 0
    axis -0.00349562 0.000650293 0.0196666 xyz
    dof rx ry rz
  end
  begin
    id 9
    name HEadDummy
    direction -0.000343232 0.999999 0.00123745
    length 3.43865
    axis -0.00349562 0.000650293 0.0196666 xyz
  end
  begin
    id 10
    name HEad
    direction -0.0461221 0.980933 0.188796
    length 5.12695
    axis -0.00351404 -7.04812 0.0199272 xyz
    dof rx ry rz
  end
  begin
    id 11
    name LeftShoulder1Dummy
    direction 0.998904 -0.0399089 -0.0244534
    length 3.5433
    axis -0.00349562 0.000650293 0.0196666 xyz
  end
  begin
    id 12
    name LeftShoulder1
    direction 0.99951 1.64443e-005 0.0312999
    length 4.05031
    axis -0.00349562 0.000650293 0.0196666 xyz
    dof rx ry rz
  end
  begin
    id 13
    name LeftArm
    direction 0.984791 0.0515299 0.165927
    length 12.9126
    axis -64.823 -10.7743 5.20463 xyz
    dof rx ry rz
  end
  begin
    id 14
    name LeftForeArm
    direction 0.984968 0.0534808 0.16425
    length 10.8596
    axis -30.0462 -7.70601 1.87451 xyz
    dof rx ry rz
  end
  begin
    id 15
    name LeftHand
    direction 0.975871 0.0289682 0.216418
    length 6.62295
    axis -20.1348 -6.98077 1.86072 xyz
    dof rx ry rz
  end
  begin
    id 16
    name RightShoulderDummy
    direction -0.998877 -0.0405946 -0.0244307
    length 3.5433
    axis -0.00349562 0.000650293 0.0196666 xyz
  end
  begin
    id 17
    name RightShoulder
    direction -0.998933 -0.0249743 -0.0388558
    length 4.05031
    axis -0.0205316 -4.02113 1.41395 xyz
    dof rx ry rz
  end
  begin
    id 18
    name RightArm
    direction -0.997559 0.068664 0.0127103
    length 12.9638
    axis -67.3882 1.84188 -6.15987 xyz
    dof rx ry rz
  end
  begin
    id 19
    name RightForeArm
    direction -0.991508 0.0912848 0.0926241
    length 10.8312
    axis -22.1975 3.41087 -4.28711 xyz
    dof rx ry rz
  end
  begin
    id 20
    name RightHand
    direction -0.989262 0.0600788 0.133232
    length 6.57864
    axis -12.2911 2.17515 -4.39675 xyz
    dof rx ry rz
  end
  begin
    id 21
    name LeftUpLegDummy
    direction 0.718183 -0.695806 0.00816078
    length 4.904
    axis 0 0 0 xyz
  end
  begin
    id 22
    name LeftUpLeg
    direction 0.0831398 -0.99469 0.0606531
    length 17.4976
    axis -1.71016 2.29552 4.63832 xyz
    dof rx ry rz
  end
  begin
    id 23
    name LeftLeg
    direction 0.0498442 -0.991778 -0.117862
    length 16.5821
    axis 5.13757 15.5727 5.13348 xyz
    dof rx ry rz
  end
  begin
    id 24
    name LeftFoot
    direction 0.269026 -0.433896 0.85986
    length 3.77069
    axis -0.576502 15.6961 4.10267 xyz
    dof rx ry rz
  end
  begin
    id 25
    name LeftToes
    direction 0.277311 0.0251143 0.960452
    length 3.85048
    axis -0.576502 15.6961 4.10267 xyz
    dof rx ry rz
  end
:hierarchy
  begin
    root RightUpLegDummy SpineDummy LeftUpLegDummy
    RightUpLegDummy RightUpLeg
    RightUpLeg RightLeg
    RightLeg RightFoot
    RightFoot RightToes
    SpineDummy Spine
    Spine Spine1
    Spine1 HEadDummy LeftShoulder1Dummy RightShoulderDummy
    HEadDummy HEad
    LeftShoulder1Dummy LeftShoulder1
    LeftShoulder1 LeftArm
    LeftArm LeftForeArm
    LeftForeArm LeftHand
    RightShoulderDummy RightShoulder
    RightShoulder RightArm
    RightArm RightForeArm
    RightForeArm RightHand
    LeftUpLegDummy LeftUpLeg
    LeftUpLeg LeftLeg
    LeftLeg LeftFoot
    LeftFoot LeftToes
  end

:SAMPLES-PER-SECOND 30
:FULLY-SPECIFIED
:DEGREES
80
root  -4.03996 39.1398 89.855 178.047 13.0911 176.541
RightUpLeg  -10.4007 -5.4529 -4.57501
RightLeg  55.2076 8.13162 -13.5695
RightFoot  5.93 -1.04123 5.88289
RightToes  3.97569e-016 -3.18055e-015 -2.98177e-016
Spine  4.77981 2.77157 4.99893
Spine1  4.80234 4.93273 -9.79375
HEad  4.64613 3.22504 -6.58577
LeftShoulder1  -3.88251e-019 9.70628e-020 -3.87848e-018
LeftArm  -25.1983 63.7704 -65.583
LeftForeArm  3.31849 -6.88901 -2.60138
LeftHand  -0.634151 -1.1563 12.1051
RightShoulder  8.13092 10.7807 37.9671
RightArm  18.8577 -32.4907 26.6912
RightForeArm  -7.93367 23.0044 -12.0728
RightHand  -1.06753 2.79818 -14.9327
LeftUpLeg  -13.8054 1.36246 -13.1151
LeftLeg  21.0266 2.90537 8.01484
LeftFoot  -8.6689 -0.27929 6.62569
LeftToes  4.86531e-011 4.41684e-011 -2.86034e-011
81
root  -3.93798 39.2639 89.0406 177.61 11.6888 176.813
RightUpLeg  -14.2552 -5.74011 -3.36627
RightLeg  59.0956 7.4575 -17.2147
RightFoot  5.54917 -0.442191 2.46479
RightToes  3.97569e-016 -3.18055e-015 -2.98177e-016
Spine  5.13595 2.0662 2.51808
Spine1  5.9036 3.61271 -7.67996
HEad  3.92648 4.21393 -7.08252
LeftShoulder1  -3.88251e-019 9.70628e-020 -3.87848e-018
LeftArm  -24.6241 60.0732 -66.747
LeftForeArm  2.44527 -8.61559 -3.10891
LeftHand  -0.773368 -1.4537 14.0772
RightShoulder  8.06635 10.7429 37.7344
RightArm  17.8726 -34.855 25.0731
RightForeArm  -8.58487 21.8824 -11.241
RightHand  -1.05974 2.59231 -15.1981
LeftUpLeg  -11.2688 -0.0401181 -12.9344
LeftLeg  20.1037 3.23852 7.73755
LeftFoot  -9.42012 -0.23952 6.66745
LeftToes  4.86531e-011 4.41684e-011 -2.86034e-011
82
root  -3.8131 39.4211 88.1732 177.348 10.098 177.312
RightUpLeg  -17.4849 -5.86567 -1.78597
RightLeg  60.036 6.67158 -19.5869
RightFoot  3.36212 -0.223177 1.40496
RightToes  3.97569e-016 -3.18055e-015 -2.98177e-016
Spine  5.07795 1.29402 -0.262563
Spine1  7.20063 1.97084 -4.31426
HEad  3.06436 5.12051 -7.57766
LeftShoulder1  -3.88251e-019 9.70628e-020 -3.87848e-018
LeftArm  -24.6388 56.2164 -68.3638
LeftForeArm  1.4701 -10.6424 -3.4613
LeftHand  -0.8005 -1.52007 14.4015
RightShoulder  7.87539 10.6345 37.0383
RightArm  16.8635 -37.2441 23.581
RightForeArm  -7.93416 20.5392 -9.72162
RightHand  -1.04517 2.04449 -16.0571
LeftUpLeg  -8.54997 -2.18808 -12.3769
LeftLeg  18.7539 3.94813 7.11205
LeftFoot  -10.287 -0.179538 6.16516
LeftToes  4.86531e-011 4.41684e-011 -2.86034e-011
83
root  -3.67372 39.4988 87.2866 177.405 8.90414 177.691
RightUpLeg  -20.8975 -5.38335 -0.351596
RightLeg  58.8197 6.20733 -19.5011
RightFoot  2.88841 -0.21414 1.38286
RightToes  3.97569e-016 -3.18055e-015 -2.98177e-016
Spine  5.15753 0.651726 -2.75679
Spine1  7.68205 0.569204 -1.63039
HEad  2.4904 5.78982 -7.50028
LeftShoulder1  -3.88251e-019 9.70628e-020 -3.87848e-018
LeftArm  -24.2064 52.4623 -69.161
LeftForeArm  0.858976 -12.9564 -3.61753
LeftHand  -0.735913 -1.79304 12.7382
RightShoulder  7.79447 10.5916 36.7322
RightArm  16.4103 -39.6656 21.1254
RightForeArm  -5.20668 19.1947 -7.82186
RightHand  -1.0258 1.60108 -16.7156
LeftUpLeg  -6.41995 -3.16252 -11.8795
LeftLeg  17.7526 3.81496 6.3104
LeftFoot  -11.4691 -0.108976 5.52992
LeftToes  4.86531e-011 4.41684e-011 -2.86034e-011
84
root  -3.53953 39.531 86.3717 177.854 7.94708 178.135
RightUpLeg  -24.2668 -4.78367 1.05595
RightLeg  55.5532 6.02003 -17.3558
RightFoot  3.4143 -0.100397 0.535965
RightToes  3.97569e-016 -3.18055e-015 -2.98177e-016
Spine  5.12865 0.112812 -4.27046
Spine1  7.57056 -0.401086 0.0479863
HEad  1.9487 5.99735 -6.94663
LeftShoulder1  -3.88251e-019 9.70628e-020 -3.87848e-018
LeftArm  -22.6741 48.7278 -69.2522
LeftForeArm  0.369704 -15.5475 -3.63471
LeftHand  -0.639531 -2.26606 10.4037
RightShoulder  7.8178 10.6118 36.8028
RightArm  16.5858 -42.31 17.5288
RightForeArm  -0.469531 18.0331 -6.15804
RightHand  -1.04494 1.92761 -16.3065
LeftUpLeg  -4.827 -3.26235 -11.2911
LeftLeg  16.9945 3.16827 5.54931
LeftFoot  -12.6122 -0.0567881 5.54548
LeftToes  4.86531e-011 4.41684e-011 -2.86034e-011
